<svg width="136" height="120" viewBox="0 0 136 120" fill="none" xmlns="http://www.w3.org/2000/svg">
<g id="Bot_00000117669704253052663600000001853966508606232765_">
<g id="Shape_00000137840811946863901630000013345022216632733842_">
<path d="M134.515 59.649C134.114 58.191 133.947 56.622 126.596 54.255C125.8 48.012 124.498 42.174 122.362 39.765C121.387 38.667 116.95 32.649 88.4942 30.648C86.2414 23.865 84.7215 23.694 83.3093 23.304C81.8971 22.914 76.7123 22.635 71.7398 22.539V13.995C73.9747 12.699 75.4796 10.275 75.4796 7.5C75.4796 3.357 72.1317 0 67.9999 0C63.8682 0 60.5203 3.357 60.5203 7.5C60.5203 10.275 62.0252 12.696 64.2601 13.995V22.539C59.2876 22.635 54.1027 22.914 52.6906 23.304C51.2784 23.694 49.7585 23.865 47.5056 30.648C19.0499 32.649 14.613 38.664 13.6377 39.765C11.5015 42.174 10.2 48.009 9.40413 54.255C2.05012 56.625 1.88557 58.194 1.48466 59.649C0.993995 61.431 0.682861 69.201 0.682861 75C0.682861 80.799 0.993995 88.569 1.48466 90.351C1.88557 91.809 2.05311 93.378 9.40413 95.745C10.2 101.988 11.5015 107.826 13.6377 110.235C14.8105 111.558 20.9917 120 67.9999 120C115.008 120 121.189 111.558 122.362 110.235C124.498 107.826 125.8 101.991 126.596 95.745C133.95 93.375 134.114 91.806 134.515 90.351C135.006 88.569 135.317 80.799 135.317 75C135.317 69.201 135.006 61.431 134.515 59.649ZM108.773 98.49C107.894 99.372 103.256 105 67.9999 105C32.7437 105 28.1063 99.372 27.2267 98.49C23.0949 94.347 23.1219 75 23.1219 75C23.1219 75 23.0949 55.653 27.2267 51.51C28.1063 50.628 32.7437 45 67.9999 45C103.256 45 107.894 50.628 108.773 51.51C112.905 55.653 112.878 75 112.878 75C112.878 75 112.905 94.347 108.773 98.49Z" fill="black"/>
<path d="M134.515 59.649C134.114 58.191 133.947 56.622 126.596 54.255C125.8 48.012 124.498 42.174 122.362 39.765C121.387 38.667 116.95 32.649 88.4942 30.648C86.2414 23.865 84.7215 23.694 83.3093 23.304C81.8971 22.914 76.7123 22.635 71.7398 22.539V13.995C73.9747 12.699 75.4796 10.275 75.4796 7.5C75.4796 3.357 72.1317 0 67.9999 0C63.8682 0 60.5203 3.357 60.5203 7.5C60.5203 10.275 62.0252 12.696 64.2601 13.995V22.539C59.2876 22.635 54.1027 22.914 52.6906 23.304C51.2784 23.694 49.7585 23.865 47.5056 30.648C19.0499 32.649 14.613 38.664 13.6377 39.765C11.5015 42.174 10.2 48.009 9.40413 54.255C2.05012 56.625 1.88557 58.194 1.48466 59.649C0.993995 61.431 0.682861 69.201 0.682861 75C0.682861 80.799 0.993995 88.569 1.48466 90.351C1.88557 91.809 2.05311 93.378 9.40413 95.745C10.2 101.988 11.5015 107.826 13.6377 110.235C14.8105 111.558 20.9917 120 67.9999 120C115.008 120 121.189 111.558 122.362 110.235C124.498 107.826 125.8 101.991 126.596 95.745C133.95 93.375 134.114 91.806 134.515 90.351C135.006 88.569 135.317 80.799 135.317 75C135.317 69.201 135.006 61.431 134.515 59.649ZM108.773 98.49C107.894 99.372 103.256 105 67.9999 105C32.7437 105 28.1063 99.372 27.2267 98.49C23.0949 94.347 23.1219 75 23.1219 75C23.1219 75 23.0949 55.653 27.2267 51.51C28.1063 50.628 32.7437 45 67.9999 45C103.256 45 107.894 50.628 108.773 51.51C112.905 55.653 112.878 75 112.878 75C112.878 75 112.905 94.347 108.773 98.49Z" fill="url(#paint0_linear_377_8685)"/>
</g>
<g id="Eye_00000083785803243038131920000009034683912858934169_">
<path d="M45.561 90C49.6919 90 53.0406 83.2843 53.0406 75C53.0406 66.7157 49.6919 60 45.561 60C41.4301 60 38.0813 66.7157 38.0813 75C38.0813 83.2843 41.4301 90 45.561 90Z" fill="black"/>
<path d="M45.561 90C49.6919 90 53.0406 83.2843 53.0406 75C53.0406 66.7157 49.6919 60 45.561 60C41.4301 60 38.0813 66.7157 38.0813 75C38.0813 83.2843 41.4301 90 45.561 90Z" fill="url(#paint1_linear_377_8685)"/>
</g>
<g id="Eye_00000165916547609449064420000009554955209463727237_">
<path d="M90.4389 90C94.5698 90 97.9186 83.2843 97.9186 75C97.9186 66.7157 94.5698 60 90.4389 60C86.308 60 82.9592 66.7157 82.9592 75C82.9592 83.2843 86.308 90 90.4389 90Z" fill="black"/>
<path d="M90.4389 90C94.5698 90 97.9186 83.2843 97.9186 75C97.9186 66.7157 94.5698 60 90.4389 60C86.308 60 82.9592 66.7157 82.9592 75C82.9592 83.2843 86.308 90 90.4389 90Z" fill="url(#paint2_linear_377_8685)"/>
</g>
<g id="Mouth_00000153663812805937234150000008548433133317120942_">
<path d="M75.4796 90C75.4796 94.143 72.1317 97.5 67.9999 97.5C63.8682 97.5 60.5203 94.143 60.5203 90H75.4796Z" fill="black"/>
<path d="M75.4796 90C75.4796 94.143 72.1317 97.5 67.9999 97.5C63.8682 97.5 60.5203 94.143 60.5203 90H75.4796Z" fill="url(#paint3_linear_377_8685)"/>
</g>
</g>
<defs>
<linearGradient id="paint0_linear_377_8685" x1="106.248" y1="16.875" x2="11.6315" y2="116.846" gradientUnits="userSpaceOnUse">
<stop stop-color="#8A28EC"/>
<stop offset="1" stop-color="#5C13F7"/>
</linearGradient>
<linearGradient id="paint1_linear_377_8685" x1="49.8108" y1="64.2188" x2="31.5813" y2="72.7792" gradientUnits="userSpaceOnUse">
<stop stop-color="#8A28EC"/>
<stop offset="1" stop-color="#5C13F7"/>
</linearGradient>
<linearGradient id="paint2_linear_377_8685" x1="94.6887" y1="64.2188" x2="76.4592" y2="72.7792" gradientUnits="userSpaceOnUse">
<stop stop-color="#8A28EC"/>
<stop offset="1" stop-color="#5C13F7"/>
</linearGradient>
<linearGradient id="paint3_linear_377_8685" x1="72.2498" y1="91.0547" x2="67.3363" y2="100.284" gradientUnits="userSpaceOnUse">
<stop stop-color="#8A28EC"/>
<stop offset="1" stop-color="#5C13F7"/>
</linearGradient>
</defs>
</svg>
