<svg width="8" height="8" viewBox="0 0 8 8" fill="none" xmlns="http://www.w3.org/2000/svg">
<rect width="8" height="8" fill="#1E1E1E"/>
<g id="Browser - weekly view">
<rect x="-95" y="-540" width="1440" height="1024" rx="46" fill="white"/>
<g id="Screen">
<g clip-path="url(#clip0_406_10830)">
<path d="M-95 -464H1345V458.4C1345 467.361 1345 471.841 1343.26 475.264C1341.72 478.274 1339.27 480.722 1336.26 482.256C1332.84 484 1328.36 484 1319.4 484H-69.4001C-78.3609 484 -82.8413 484 -86.2638 482.256C-89.2744 480.722 -91.7221 478.274 -93.2561 475.264C-95 471.841 -95 467.361 -95 458.4V-464Z" fill="white"/>
<g id="title and calendad">
<g id="Calendar">
<g id="Calendar Crop" clip-path="url(#clip1_406_10830)">
<g id="Grid">
<g id="Column">
<g id="Colums">
<g id="Slot">
<mask id="path-3-outside-1_406_10830" maskUnits="userSpaceOnUse" x="-42" y="-21" width="200" height="74" fill="black">
<rect fill="white" x="-42" y="-21" width="200" height="74"/>
<path d="M-41 -20H157V52H-41V-20Z"/>
</mask>
<path d="M-41 -20H157V52H-41V-20Z" fill="white"/>
<path d="M-41 -20V-21H-42V-20H-41ZM157 -20H158V-21H157V-20ZM157 52V53H158V52H157ZM-41 52H-42V53H-41V52ZM-41 -19H157V-21H-41V-19ZM156 -20V52H158V-20H156ZM157 51H-41V53H157V51ZM-40 52V-20H-42V52H-40Z" fill="#DADCE0" mask="url(#path-3-outside-1_406_10830)"/>
</g>
</g>
</g>
</g>
</g>
</g>
<g id="Cards">
<g id="Large Card">
<rect x="-40" y="-55" width="195" height="69" rx="2" fill="#EA4335"/>
<rect x="-40" y="-55" width="195" height="69" rx="2" fill="white" fill-opacity="0.8"/>
<g id="Content">
<g id="Bottom">
<g id="Bot">
<rect x="-2" y="-2" width="12" height="12" rx="6" fill="white" fill-opacity="0.6"/>
<g id="Frame 83">
<g id="Bot_2">
<g id="Shape">
<path d="M7.55743 3.48133C7.53599 3.40365 7.52703 3.31996 7.13383 3.19356C7.09135 2.86059 7.02167 2.5493 6.90743 2.42082C6.85535 2.36218 6.61807 2.04129 5.09631 1.93457C4.97575 1.57272 4.89455 1.56368 4.81903 1.54288C4.74351 1.522 4.46615 1.50728 4.20031 1.50208V1.04639C4.31983 0.977186 4.40031 0.848063 4.40031 0.700059C4.40031 0.479173 4.22119 0.300049 4.00031 0.300049C3.77943 0.300049 3.60031 0.479173 3.60031 0.700059C3.60031 0.848063 3.68079 0.977266 3.80031 1.04639V1.50208C3.53439 1.50728 3.25711 1.522 3.18159 1.54288C3.10607 1.56368 3.02487 1.5728 2.90431 1.93457C1.38255 2.04129 1.14527 2.36218 1.09319 2.42082C0.978951 2.5493 0.909271 2.86059 0.866791 3.19356C0.473591 3.31988 0.464631 3.40357 0.443191 3.48133C0.416951 3.57637 0.400391 3.99086 0.400391 4.30007C0.400391 4.60936 0.417031 5.02377 0.443191 5.11881C0.464631 5.19649 0.473591 5.28017 0.866791 5.40658C0.909271 5.73955 0.978951 6.05083 1.09319 6.17932C1.15591 6.24988 1.48647 6.70005 4.00039 6.70005C6.51431 6.70005 6.84487 6.2498 6.90759 6.17932C7.02183 6.05083 7.09151 5.73955 7.13399 5.40658C7.52719 5.28025 7.53615 5.19657 7.55759 5.11881C7.58383 5.02377 7.60039 4.60928 7.60039 4.30007C7.60023 3.99078 7.58359 3.57637 7.55743 3.48133ZM6.18063 5.5529C6.13359 5.59994 5.88567 5.90011 4.00023 5.90011C2.11479 5.90011 1.86687 5.59994 1.81983 5.5529C1.59879 5.33185 1.60023 4.30007 1.60023 4.30007C1.60023 4.30007 1.59879 3.26828 1.81983 3.04724C1.86687 3.0002 2.11479 2.70003 4.00023 2.70003C5.88567 2.70003 6.13359 3.0002 6.18063 3.04724C6.40167 3.26828 6.40023 4.30007 6.40023 4.30007C6.40023 4.30007 6.40167 5.33185 6.18063 5.5529Z" fill="#EA4335"/>
<path d="M7.55743 3.48133C7.53599 3.40365 7.52703 3.31996 7.13383 3.19356C7.09135 2.86059 7.02167 2.5493 6.90743 2.42082C6.85535 2.36218 6.61807 2.04129 5.09631 1.93457C4.97575 1.57272 4.89455 1.56368 4.81903 1.54288C4.74351 1.522 4.46615 1.50728 4.20031 1.50208V1.04639C4.31983 0.977186 4.40031 0.848063 4.40031 0.700059C4.40031 0.479173 4.22119 0.300049 4.00031 0.300049C3.77943 0.300049 3.60031 0.479173 3.60031 0.700059C3.60031 0.848063 3.68079 0.977266 3.80031 1.04639V1.50208C3.53439 1.50728 3.25711 1.522 3.18159 1.54288C3.10607 1.56368 3.02487 1.5728 2.90431 1.93457C1.38255 2.04129 1.14527 2.36218 1.09319 2.42082C0.978951 2.5493 0.909271 2.86059 0.866791 3.19356C0.473591 3.31988 0.464631 3.40357 0.443191 3.48133C0.416951 3.57637 0.400391 3.99086 0.400391 4.30007C0.400391 4.60936 0.417031 5.02377 0.443191 5.11881C0.464631 5.19649 0.473591 5.28017 0.866791 5.40658C0.909271 5.73955 0.978951 6.05083 1.09319 6.17932C1.15591 6.24988 1.48647 6.70005 4.00039 6.70005C6.51431 6.70005 6.84487 6.2498 6.90759 6.17932C7.02183 6.05083 7.09151 5.73955 7.13399 5.40658C7.52719 5.28025 7.53615 5.19657 7.55759 5.11881C7.58383 5.02377 7.60039 4.60928 7.60039 4.30007C7.60023 3.99078 7.58359 3.57637 7.55743 3.48133ZM6.18063 5.5529C6.13359 5.59994 5.88567 5.90011 4.00023 5.90011C2.11479 5.90011 1.86687 5.59994 1.81983 5.5529C1.59879 5.33185 1.60023 4.30007 1.60023 4.30007C1.60023 4.30007 1.59879 3.26828 1.81983 3.04724C1.86687 3.0002 2.11479 2.70003 4.00023 2.70003C5.88567 2.70003 6.13359 3.0002 6.18063 3.04724C6.40167 3.26828 6.40023 4.30007 6.40023 4.30007C6.40023 4.30007 6.40167 5.33185 6.18063 5.5529Z" fill="black" fill-opacity="0.4"/>
</g>
<g id="Eye">
<path d="M2.80039 5.10022C3.0213 5.10022 3.20039 4.74204 3.20039 4.3002C3.20039 3.85836 3.0213 3.50018 2.80039 3.50018C2.57948 3.50018 2.40039 3.85836 2.40039 4.3002C2.40039 4.74204 2.57948 5.10022 2.80039 5.10022Z" fill="#EA4335"/>
<path d="M2.80039 5.10022C3.0213 5.10022 3.20039 4.74204 3.20039 4.3002C3.20039 3.85836 3.0213 3.50018 2.80039 3.50018C2.57948 3.50018 2.40039 3.85836 2.40039 4.3002C2.40039 4.74204 2.57948 5.10022 2.80039 5.10022Z" fill="black" fill-opacity="0.4"/>
</g>
<g id="Eye_00000116212102266929890060000001639252710653750975_">
<path d="M5.20078 5.10041C5.4217 5.10041 5.60078 4.74223 5.60078 4.30039C5.60078 3.85855 5.4217 3.50037 5.20078 3.50037C4.97987 3.50037 4.80078 3.85855 4.80078 4.30039C4.80078 4.74223 4.97987 5.10041 5.20078 5.10041Z" fill="#EA4335"/>
<path d="M5.20078 5.10041C5.4217 5.10041 5.60078 4.74223 5.60078 4.30039C5.60078 3.85855 5.4217 3.50037 5.20078 3.50037C4.97987 3.50037 4.80078 3.85855 4.80078 4.30039C4.80078 4.74223 4.97987 5.10041 5.20078 5.10041Z" fill="black" fill-opacity="0.4"/>
</g>
<g id="Mouth">
<path d="M4.39961 5.10022C4.39961 5.32111 4.22049 5.50023 3.99961 5.50023C3.77873 5.50023 3.59961 5.32111 3.59961 5.10022H4.39961Z" fill="#EA4335"/>
<path d="M4.39961 5.10022C4.39961 5.32111 4.22049 5.50023 3.99961 5.50023C3.77873 5.50023 3.59961 5.32111 3.59961 5.10022H4.39961Z" fill="black" fill-opacity="0.4"/>
</g>
</g>
</g>
</g>
</g>
</g>
</g>
</g>
</g>
</g>
</g>
</g>
<defs>
<clipPath id="clip0_406_10830">
<path d="M-95 -464H1345V458.4C1345 467.361 1345 471.841 1343.26 475.264C1341.72 478.274 1339.27 480.722 1336.26 482.256C1332.84 484 1328.36 484 1319.4 484H-69.4001C-78.3609 484 -82.8413 484 -86.2638 482.256C-89.2744 480.722 -91.7221 478.274 -93.2561 475.264C-95 471.841 -95 467.361 -95 458.4V-464Z" fill="white"/>
</clipPath>
<clipPath id="clip1_406_10830">
<rect width="1440" height="864" fill="white" transform="translate(-95 -380)"/>
</clipPath>
</defs>
</svg>
